{
	"asset":{
		"generator":"Khronos glTF Blender I/O v3.6.28",
		"version":"2.0"
	},
	"scene":0,
	"scenes":[
		{
			"name":"Scene",
			"nodes":[
				0
			]
		}
	],
	"nodes":[
		{
			"mesh":0,
			"name":"Mapa_hight.001",
			"scale":[
				11.503800392150879,
				11.503800392150879,
				11.503800392150879
			]
		}
	],
	"meshes":[
		{
			"name":"Plane.007",
			"primitives":[
				{
					"attributes":{
						"COLOR_0":0,
						"POSITION":1,
						"NORMAL":2,
						"TEXCOORD_0":3
					},
					"indices":4
				}
			]
		}
	],
	"accessors":[
		{
			"bufferView":0,
			"componentType":5126,
			"count":4698,
			"type":"VEC4"
		},
		{
			"bufferView":1,
			"componentType":5126,
			"count":4698,
			"max":[
				0.9940192103385925,
				0.11072419583797455,
				0.9943572282791138
			],
			"min":[
				-0.9947770237922668,
				-0.10192461311817169,
				-0.9942841529846191
			],
			"type":"VEC3"
		},
		{
			"bufferView":2,
			"componentType":5126,
			"count":4698,
			"type":"VEC3"
		},
		{
			"bufferView":3,
			"componentType":5126,
			"count":4698,
			"type":"VEC2"
		},
		{
			"bufferView":4,
			"componentType":5123,
			"count":27615,
			"type":"SCALAR"
		}
	],
	"bufferViews":[
		{
			"buffer":0,
			"byteLength":75168,
			"byteOffset":0,
			"target":34962
		},
		{
			"buffer":0,
			"byteLength":56376,
			"byteOffset":75168,
			"target":34962
		},
		{
			"buffer":0,
			"byteLength":56376,
			"byteOffset":131544,
			"target":34962
		},
		{
			"buffer":0,
			"byteLength":37584,
			"byteOffset":187920,
			"target":34962
		},
		{
			"buffer":0,
			"byteLength":55230,
			"byteOffset":225504,
			"target":34963
		}
	],
	"buffers":[
		{
			"byteLength":280736,
			"uri":"data:application/octet-stream;base64,"
		}
	]
}
