{
	"asset":{
		"generator":"Khronos glTF Blender I/O v3.6.28",
		"version":"2.0"
	},
	"scene":0,
	"scenes":[
		{
			"name":"Scene",
			"nodes":[
				0
			]
		}
	],
	"nodes":[
		{
			"mesh":0,
			"name":"Mapa_3D"
		}
	],
	"meshes":[
		{
			"name":"Mapa_3D",
			"primitives":[
				{
					"attributes":{
						"POSITION":0,
						"NORMAL":1,
						"TEXCOORD_0":2
					},
					"indices":3
				}
			]
		}
	],
	"accessors":[
		{
			"bufferView":0,
			"componentType":5126,
			"count":2384,
			"max":[
				33.51270294189453,
				3.213144540786743,
				34.347293853759766
			],
			"min":[
				-37.07750701904297,
				-4.1796979904174805,
				-36.242916107177734
			],
			"type":"VEC3"
		},
		{
			"bufferView":1,
			"componentType":5126,
			"count":2384,
			"type":"VEC3"
		},
		{
			"bufferView":2,
			"componentType":5126,
			"count":2384,
			"type":"VEC2"
		},
		{
			"bufferView":3,
			"componentType":5123,
			"count":13935,
			"type":"SCALAR"
		}
	],
	"bufferViews":[
		{
			"buffer":0,
			"byteLength":28608,
			"byteOffset":0,
			"target":34962
		},
		{
			"buffer":0,
			"byteLength":28608,
			"byteOffset":28608,
			"target":34962
		},
		{
			"buffer":0,
			"byteLength":19072,
			"byteOffset":57216,
			"target":34962
		},
		{
			"buffer":0,
			"byteLength":27870,
			"byteOffset":76288,
			"target":34963
		}
	],
	"buffers":[
		{
			"byteLength":104160,
			"uri":"data:application/octet-stream;base64,"
		}
	]
}
